<svg width="191" height="40" viewBox="0 0 191 40" fill="none" xmlns="http://www.w3.org/2000/svg">
<path d="M40.2027 0H0V40H40.2027V0Z" fill="black"/>
<path d="M39.1325 1.18359H1.1897V38.9351H39.1325V1.18359Z" fill="#FFEE00"/>
<path d="M3.21146 31.2428L8.20706 36.2132L19.7445 24.4973L31.7578 36.4499L36.7534 31.4795L24.8591 19.6452L27.119 17.3967V12.6629L28.5463 11.4795V15.3848L30.3304 16.9233L35.8018 11.4795L37.586 12.7813C38.6564 8.9943 32.5904 0.236905 27.5948 5.08897L21.7666 10.8878L22.956 12.3079L19.9824 15.1481L17.2467 12.3079L18.793 11.0061L12.3701 4.85229C7.61235 0.946964 2.61675 6.86412 2.4978 12.7813L4.28195 11.3612L9.63438 17.16L11.5375 15.6215V12.0712L12.7269 13.018V17.6334L15.1058 20.0002L3.21146 31.2428Z" fill="black"/>
<path d="M178.771 16.4497H182.696V11.9527H186.383V16.4497H190.308V5.32544H186.383V9.23077H182.696V5.32544H178.771V16.4497ZM154.863 8.52071C155.696 7.92899 156.885 7.57396 157.837 7.57396C158.313 7.57396 159.383 7.69231 159.383 8.63905C159.383 9.5858 158.432 9.5858 158.075 9.5858H156.172V12.071H157.837C158.432 12.071 159.502 12.071 159.502 13.0178C159.502 13.3728 159.264 14.0828 157.956 14.0828C156.529 14.0828 155.696 13.7278 154.507 13.0178L153.436 15.6213C155.577 16.8047 157.599 16.9231 158.432 16.9231C162.952 16.9231 163.546 14.3195 163.546 13.4911C163.546 12.3077 162.833 11.1243 161.286 10.7692C162.238 10.2959 162.952 9.34911 162.952 8.16568C162.952 5.56213 160.216 4.97041 158.432 4.97041C156.885 4.97041 154.982 5.44379 153.793 6.0355L154.863 8.52071ZM146.181 3.78698C147.965 3.78698 149.868 3.07692 150.7 1.18343L148.084 0.236686C147.727 1.53846 146.656 1.6568 146.181 1.6568C145.705 1.6568 144.634 1.53846 144.278 0.236686L141.78 1.18343C142.612 3.19527 144.515 3.78698 146.181 3.78698ZM140.115 5.32544V16.568H143.921L147.846 10.4142V16.568H151.771V5.32544H147.965L144.04 11.3609V5.32544H140.115ZM113.828 14.0828V7.81065C112.52 7.81065 111.092 8.7574 111.092 10.8876C111.211 13.1361 112.52 14.0828 113.828 14.0828ZM117.277 7.81065V14.0828C118.586 14.0828 120.013 13.1361 120.013 11.0059C120.013 8.87574 118.586 7.81065 117.277 7.81065ZM113.59 21.4201V16.6864C111.211 16.6864 107.405 15.7396 107.405 10.8876C107.405 6.0355 111.33 5.08876 113.59 5.08876V0.236686H117.515V5.08876C119.894 5.08876 123.7 6.0355 123.7 10.8876C123.7 15.7396 119.775 16.6864 117.515 16.6864V21.4201H113.59ZM96.1056 14.0828V7.81065C94.7973 7.81065 93.37 8.7574 93.37 10.8876C93.37 13.1361 94.6783 14.0828 96.1056 14.0828ZM99.555 7.81065V14.0828C100.863 14.0828 102.291 13.1361 102.291 11.0059C102.172 8.87574 100.863 7.81065 99.555 7.81065ZM95.8678 21.4201V16.6864C93.4889 16.6864 89.6827 15.7396 89.6827 10.8876C89.6827 6.0355 93.4889 5.08876 95.8678 5.08876V0.236686H99.7929V5.08876C102.172 5.08876 105.978 6.0355 105.978 10.8876C105.978 15.7396 102.053 16.6864 99.7929 16.6864V21.4201H95.8678ZM82.1893 3.78698C83.9735 3.78698 85.8766 3.07692 86.5902 1.18343L83.9735 0.236686C83.6166 1.53846 82.5462 1.6568 82.0704 1.6568C81.5946 1.6568 80.5241 1.53846 80.1673 0.236686L77.6695 1.18343C78.5021 3.19527 80.4052 3.78698 82.1893 3.78698ZM76.0043 5.32544V16.568H79.8105L83.7356 10.4142V16.568H87.6607V5.32544H83.8545L79.9294 11.3609V5.32544H76.0043ZM51.8589 3.5503V7.33728H53.2862C55.3082 7.33728 55.4272 6.15385 55.4272 5.44379C55.4272 4.61538 55.1893 3.5503 53.2862 3.5503H51.8589ZM47.5769 16.4497V0H54.2377C58.7576 0 60.0659 3.19527 60.0659 5.44379C60.0659 7.69231 58.7576 10.8876 54.3567 10.8876H51.9778V16.4497H47.5769ZM137.617 5.32544V16.568H133.692V15.2663C132.978 16.3314 131.67 16.9231 130.361 16.9231C127.031 16.9231 124.771 14.0828 124.771 10.8876C124.771 7.69231 127.031 4.97041 130.361 4.97041C131.67 4.97041 132.978 5.44379 133.811 6.39053V5.32544H137.617ZM131.313 8.40237C129.648 8.40237 128.815 9.5858 128.815 10.8876C128.815 12.3077 129.766 13.3728 131.313 13.3728C132.859 13.3728 133.811 12.3077 133.811 10.8876C133.811 9.46745 132.859 8.40237 131.313 8.40237ZM73.5065 5.32544V16.568H69.5814V15.2663C68.8677 16.3314 67.5593 16.9231 66.251 16.9231C62.9206 16.9231 60.6607 14.0828 60.6607 10.8876C60.6607 7.69231 62.9206 4.97041 66.251 4.97041C67.5593 4.97041 68.8677 5.44379 69.7003 6.39053V5.32544H73.5065ZM67.2025 8.40237C65.5373 8.40237 64.7047 9.5858 64.7047 10.8876C64.7047 12.3077 65.6563 13.3728 67.2025 13.3728C68.7488 13.3728 69.7003 12.3077 69.7003 10.8876C69.7003 9.46745 68.7488 8.40237 67.2025 8.40237ZM176.868 11.3609V11.8343H168.542C168.542 13.4911 169.374 14.3195 171.04 14.3195C171.872 14.3195 172.467 14.0828 172.943 13.2544H176.749C176.154 15.9763 173.656 17.1598 171.04 17.1598C167.352 17.1598 164.617 15.0296 164.617 11.2426C164.617 7.45562 167.115 5.2071 170.802 5.2071C174.608 5.08876 176.868 7.57396 176.868 11.3609ZM168.542 9.46745H173.062C172.824 8.40237 171.872 7.69231 170.802 7.69231C169.731 7.69231 168.78 8.28402 168.542 9.46745Z" fill="black"/>
<path d="M52.691 36.568H53.4047C54.1183 36.568 54.713 36.568 55.1888 36.4496C55.6646 36.3313 56.0214 36.2129 56.3782 35.9762C56.7351 35.7396 56.9729 35.2662 57.0919 34.6745C57.2108 34.0827 57.2108 33.7277 56.9729 33.491C56.7351 33.2543 56.3782 33.0177 56.0214 33.0177C55.6646 33.0177 55.0699 32.8993 54.2373 32.8993H53.5236L52.691 36.568ZM62.0875 23.4319L61.2549 27.1005H54.5941L54.1183 29.349H56.6161C57.9245 29.349 58.876 29.5857 59.7086 29.9407C60.5412 30.2958 61.017 31.0058 61.3738 31.7159C61.6117 32.5443 61.7307 33.491 61.3738 34.6745C61.1359 35.7395 60.6602 36.8046 59.9465 37.5147C59.2329 38.3431 58.4003 38.9348 57.4487 39.2898C56.4972 39.6449 55.3077 39.8816 54.1183 39.8816H47.4575L51.0258 23.1952H62.0875V23.4319Z" fill="black"/>
<path d="M72.5551 28.5207L69.5815 33.8462H73.1498L72.5551 28.5207ZM67.6784 37.1598L65.8943 40H61.2555L71.2467 23.3136H76.0044L78.7401 40H74.1014L73.6256 37.1598H67.6784Z" fill="black"/>
<path d="M93.4886 29.8224L94.797 23.4319H99.1979L95.6296 40H91.2287L92.7749 33.2544H86.471L85.0437 40H80.6428L84.2111 23.4319H88.493L87.1846 29.8224H93.4886Z" fill="black"/>
<path d="M112.164 23.4319H117.635L109.309 31.2426L114.661 40H108.952L104.908 32.781L103.362 40H98.9609L102.529 23.4319H106.93L105.384 30.2958H105.503L112.164 23.4319Z" fill="black"/>
</svg>
