<svg width="108" height="35" viewBox="0 0 108 35" fill="none" xmlns="http://www.w3.org/2000/svg">
<path d="M0.408 0.735999V12H1.832V2.048H7.8V12H9.224V0.735999H0.408ZM15.793 3.76C14.401 3.76 13.553 4.4 13.153 5.088V3.936H11.825V15.056H13.201V11.008C13.585 11.6 14.449 12.176 15.745 12.176C17.601 12.176 19.425 10.816 19.425 7.968C19.425 5.136 17.617 3.76 15.793 3.76ZM15.617 10.928C14.129 10.928 13.153 9.792 13.153 8V7.936C13.153 6.144 14.129 5.008 15.617 5.008C17.057 5.008 18.017 6.208 18.017 7.968C18.017 9.728 17.057 10.928 15.617 10.928ZM24.7326 3.76C22.3806 3.76 20.8606 5.52 20.8606 7.968C20.8606 10.416 22.3806 12.176 24.7326 12.176C27.0846 12.176 28.6046 10.416 28.6046 7.968C28.6046 5.52 27.0846 3.76 24.7326 3.76ZM24.7326 10.928C23.2126 10.928 22.2686 9.728 22.2686 7.968C22.2686 6.208 23.2126 5.008 24.7326 5.008C26.2526 5.008 27.1966 6.208 27.1966 7.968C27.1966 9.728 26.2526 10.928 24.7326 10.928ZM33.8721 10.928C32.4161 10.928 31.4561 9.728 31.4561 7.968C31.4561 6.224 32.3841 5.008 33.8561 5.008C35.1361 5.008 35.7281 5.84 35.9361 6.512H37.3121C37.1041 5.232 36.0001 3.76 33.8561 3.76C31.5361 3.76 30.0481 5.552 30.0481 7.968C30.0481 10.432 31.5681 12.176 33.8561 12.176C35.8561 12.176 37.1361 10.832 37.3121 9.392H35.9361C35.7601 10.08 35.2161 10.928 33.8721 10.928ZM45.0464 3.936H38.2464V5.168H40.9504V12H42.3264V5.168H45.0464V3.936ZM49.7483 3.76C47.3963 3.76 45.8763 5.52 45.8763 7.968C45.8763 10.416 47.3963 12.176 49.7483 12.176C52.1003 12.176 53.6203 10.416 53.6203 7.968C53.6203 5.52 52.1003 3.76 49.7483 3.76ZM49.7483 10.928C48.2283 10.928 47.2843 9.728 47.2843 7.968C47.2843 6.208 48.2283 5.008 49.7483 5.008C51.2683 5.008 52.2123 6.208 52.2123 7.968C52.2123 9.728 51.2683 10.928 49.7483 10.928ZM56.1745 10.224C55.6305 10.224 55.1825 10.64 55.1825 11.2C55.1825 11.76 55.6305 12.176 56.1745 12.176C56.7185 12.176 57.1665 11.76 57.1665 11.2C57.1665 10.64 56.7185 10.224 56.1745 10.224ZM69.1365 0.735999V5.792C68.5605 6.192 67.7285 6.48 66.6565 6.48C64.9925 6.48 63.6965 5.584 63.6965 3.568V0.735999H62.2725V3.584C62.2725 6.48 64.2085 7.808 66.5125 7.808C67.6805 7.808 68.5125 7.568 69.1365 7.168V12H70.5605V0.735999H69.1365ZM80.0008 8.384V7.68C80.0008 5.28 78.6248 3.76 76.4808 3.76C74.2728 3.76 72.6888 5.36 72.6888 7.968C72.6888 10.56 74.2568 12.176 76.5928 12.176C78.6888 12.176 79.6968 10.864 79.9048 9.92H78.5128C78.3688 10.336 77.7288 10.944 76.6088 10.944C75.1208 10.944 74.1288 9.856 74.1288 8.416V8.384H80.0008ZM76.4488 4.992C77.7448 4.992 78.5448 5.824 78.6088 7.216H74.1448C74.2568 5.888 75.1048 4.992 76.4488 4.992ZM87.7183 3.936H80.9183V5.168H83.6223V12H84.9983V5.168H87.7183V3.936ZM96.0904 12L92.2504 7.696L96.0424 3.936H94.2984L90.8104 7.392V3.936H89.4344V12H90.8104V8.096L94.3144 12H96.0904ZM100.514 3.76C98.1619 3.76 96.6419 5.52 96.6419 7.968C96.6419 10.416 98.1619 12.176 100.514 12.176C102.866 12.176 104.386 10.416 104.386 7.968C104.386 5.52 102.866 3.76 100.514 3.76ZM100.514 10.928C98.9939 10.928 98.0499 9.728 98.0499 7.968C98.0499 6.208 98.9939 5.008 100.514 5.008C102.034 5.008 102.978 6.208 102.978 7.968C102.978 9.728 102.034 10.928 100.514 10.928ZM106.94 10.224C106.396 10.224 105.948 10.64 105.948 11.2C105.948 11.76 106.396 12.176 106.94 12.176C107.484 12.176 107.932 11.76 107.932 11.2C107.932 10.64 107.484 10.224 106.94 10.224ZM8.776 34L3.336 28.128L8.68 22.736H6.84L1.832 27.76V22.736H0.408V34H1.832V28.624L6.888 34H8.776ZM13.0451 25.76C10.6931 25.76 9.17313 27.52 9.17313 29.968C9.17313 32.416 10.6931 34.176 13.0451 34.176C15.3971 34.176 16.9171 32.416 16.9171 29.968C16.9171 27.52 15.3971 25.76 13.0451 25.76ZM13.0451 32.928C11.5251 32.928 10.5811 31.728 10.5811 29.968C10.5811 28.208 11.5251 27.008 13.0451 27.008C14.5651 27.008 15.5091 28.208 15.5091 29.968C15.5091 31.728 14.5651 32.928 13.0451 32.928ZM26.3766 25.936L23.4486 32.368L20.5206 25.936H18.8406V34H20.1846V28.144L22.8726 34H24.0246L26.6966 28.144V34H28.0406V25.936H26.3766ZM30.4344 25.936V34H31.8104V27.168H35.7464V34H37.1224V25.936H30.4344ZM46.3601 30.384V29.68C46.3601 27.28 44.9841 25.76 42.8401 25.76C40.6321 25.76 39.0481 27.36 39.0481 29.968C39.0481 32.56 40.6161 34.176 42.9521 34.176C45.0481 34.176 46.0561 32.864 46.2641 31.92H44.8721C44.7281 32.336 44.0881 32.944 42.9681 32.944C41.4801 32.944 40.4881 31.856 40.4881 30.416V30.384H46.3601ZM42.8081 26.992C44.1041 26.992 44.9041 27.824 44.9681 29.216H40.5041C40.6161 27.888 41.4641 26.992 42.8081 26.992ZM54.0776 25.936H47.2776V27.168H49.9816V34H51.3576V27.168H54.0776V25.936ZM62.2195 30.384V29.68C62.2195 27.28 60.8435 25.76 58.6995 25.76C56.4915 25.76 54.9075 27.36 54.9075 29.968C54.9075 32.56 56.4755 34.176 58.8115 34.176C60.9075 34.176 61.9155 32.864 62.1235 31.92H60.7315C60.5875 32.336 59.9475 32.944 58.8275 32.944C57.3395 32.944 56.3475 31.856 56.3475 30.416V30.384H62.2195ZM58.6675 26.992C59.9635 26.992 60.7635 27.824 60.8275 29.216H56.3635C56.4755 27.888 57.3235 26.992 58.6675 26.992ZM69.4975 25.936V29.184H65.5135V25.936H64.1375V34H65.5135V30.432H69.4975V34H70.8735V25.936H69.4975ZM79.3901 25.936H72.5901V27.168H75.2941V34H76.6701V27.168H79.3901V25.936ZM86.4663 25.936V29.184H82.4823V25.936H81.1063V34H82.4823V30.432H86.4663V34H87.8423V25.936H86.4663ZM93.6389 25.76C91.2869 25.76 89.7669 27.52 89.7669 29.968C89.7669 32.416 91.2869 34.176 93.6389 34.176C95.9909 34.176 97.5109 32.416 97.5109 29.968C97.5109 27.52 95.9909 25.76 93.6389 25.76ZM93.6389 32.928C92.1189 32.928 91.1749 31.728 91.1749 29.968C91.1749 28.208 92.1189 27.008 93.6389 27.008C95.1589 27.008 96.1029 28.208 96.1029 29.968C96.1029 31.728 95.1589 32.928 93.6389 32.928ZM100.065 32.224C99.5211 32.224 99.0731 32.64 99.0731 33.2C99.0731 33.76 99.5211 34.176 100.065 34.176C100.609 34.176 101.057 33.76 101.057 33.2C101.057 32.64 100.609 32.224 100.065 32.224Z" fill="#2B2D33"/>
</svg>
